q<mxfile host="app.diagrams.net" modified="2023-10-20T15:59:43.521Z" agent="Mozilla/5.0 (X11; Linux x86_64; rv:109.0) Gecko/20100101 Firefox/118.0" etag="oqyR7GcluaJdMLMrFvkb" version="22.0.5" type="device">
  <diagram name="Page-1" id="QMnpKY_nUgWbdzZ4fcwU">
    <mxGraphModel dx="1412" dy="752" grid="0" gridSize="10" guides="1" tooltips="1" connect="1" arrows="1" fold="1" page="1" pageScale="1" pageWidth="1654" pageHeight="1169" math="0" shadow="0">
      <root>
        <mxCell id="0" />
        <mxCell id="1" parent="0" />
        <mxCell id="9gpGC4CJjmBjQRVp-zge-5" value="&lt;b&gt;Person&lt;/b&gt;" style="swimlane;fontStyle=0;childLayout=stackLayout;horizontal=1;startSize=26;fillColor=none;horizontalStack=0;resizeParent=1;resizeParentMax=0;resizeLast=0;collapsible=1;marginBottom=0;whiteSpace=wrap;html=1;" parent="1" vertex="1">
          <mxGeometry x="665" y="301" width="140" height="156" as="geometry" />
        </mxCell>
        <mxCell id="9gpGC4CJjmBjQRVp-zge-6" value="+ name: string" style="text;strokeColor=none;fillColor=none;align=left;verticalAlign=top;spacingLeft=4;spacingRight=4;overflow=hidden;rotatable=0;points=[[0,0.5],[1,0.5]];portConstraint=eastwest;whiteSpace=wrap;html=1;" parent="9gpGC4CJjmBjQRVp-zge-5" vertex="1">
          <mxGeometry y="26" width="140" height="26" as="geometry" />
        </mxCell>
        <mxCell id="9gpGC4CJjmBjQRVp-zge-13" value="+ lastName: string" style="text;strokeColor=none;fillColor=none;align=left;verticalAlign=top;spacingLeft=4;spacingRight=4;overflow=hidden;rotatable=0;points=[[0,0.5],[1,0.5]];portConstraint=eastwest;whiteSpace=wrap;html=1;" parent="9gpGC4CJjmBjQRVp-zge-5" vertex="1">
          <mxGeometry y="52" width="140" height="26" as="geometry" />
        </mxCell>
        <mxCell id="9gpGC4CJjmBjQRVp-zge-7" value="+ email: string" style="text;strokeColor=none;fillColor=none;align=left;verticalAlign=top;spacingLeft=4;spacingRight=4;overflow=hidden;rotatable=0;points=[[0,0.5],[1,0.5]];portConstraint=eastwest;whiteSpace=wrap;html=1;" parent="9gpGC4CJjmBjQRVp-zge-5" vertex="1">
          <mxGeometry y="78" width="140" height="26" as="geometry" />
        </mxCell>
        <mxCell id="9gpGC4CJjmBjQRVp-zge-8" value="+ phone: string" style="text;strokeColor=none;fillColor=none;align=left;verticalAlign=top;spacingLeft=4;spacingRight=4;overflow=hidden;rotatable=0;points=[[0,0.5],[1,0.5]];portConstraint=eastwest;whiteSpace=wrap;html=1;" parent="9gpGC4CJjmBjQRVp-zge-5" vertex="1">
          <mxGeometry y="104" width="140" height="26" as="geometry" />
        </mxCell>
        <mxCell id="YacbXNfmR49tajV6Oktm-11" value="+ id(counter) = int" style="text;strokeColor=none;fillColor=none;align=left;verticalAlign=top;spacingLeft=4;spacingRight=4;overflow=hidden;rotatable=0;points=[[0,0.5],[1,0.5]];portConstraint=eastwest;whiteSpace=wrap;html=1;" vertex="1" parent="9gpGC4CJjmBjQRVp-zge-5">
          <mxGeometry y="130" width="140" height="26" as="geometry" />
        </mxCell>
        <mxCell id="gMA8jWBDo5knQY557vL3-12" style="rounded=0;orthogonalLoop=1;jettySize=auto;html=1;" parent="1" source="9gpGC4CJjmBjQRVp-zge-9" target="9gpGC4CJjmBjQRVp-zge-70" edge="1">
          <mxGeometry relative="1" as="geometry" />
        </mxCell>
        <mxCell id="gMA8jWBDo5knQY557vL3-13" value="CRUD" style="edgeLabel;html=1;align=center;verticalAlign=middle;resizable=0;points=[];" parent="gMA8jWBDo5knQY557vL3-12" vertex="1" connectable="0">
          <mxGeometry x="-0.0476" y="-1" relative="1" as="geometry">
            <mxPoint as="offset" />
          </mxGeometry>
        </mxCell>
        <mxCell id="gMA8jWBDo5knQY557vL3-41" style="rounded=0;orthogonalLoop=1;jettySize=auto;html=1;" parent="1" source="9gpGC4CJjmBjQRVp-zge-9" target="ac5Oy0qzjt6PamUdByvo-19" edge="1">
          <mxGeometry relative="1" as="geometry" />
        </mxCell>
        <mxCell id="dwK1PaEnIPrI9FGavNex-4" style="edgeStyle=orthogonalEdgeStyle;rounded=0;orthogonalLoop=1;jettySize=auto;html=1;" parent="1" source="9gpGC4CJjmBjQRVp-zge-9" target="9gpGC4CJjmBjQRVp-zge-81" edge="1">
          <mxGeometry relative="1" as="geometry" />
        </mxCell>
        <mxCell id="dwK1PaEnIPrI9FGavNex-8" style="edgeStyle=orthogonalEdgeStyle;rounded=0;orthogonalLoop=1;jettySize=auto;html=1;" parent="1" source="9gpGC4CJjmBjQRVp-zge-9" target="9gpGC4CJjmBjQRVp-zge-31" edge="1">
          <mxGeometry relative="1" as="geometry">
            <Array as="points">
              <mxPoint x="735" y="941" />
              <mxPoint x="1285" y="941" />
            </Array>
          </mxGeometry>
        </mxCell>
        <mxCell id="9gpGC4CJjmBjQRVp-zge-9" value="&lt;b&gt;Employee (DB)&lt;/b&gt;" style="swimlane;fontStyle=0;childLayout=stackLayout;horizontal=1;startSize=26;fillColor=none;horizontalStack=0;resizeParent=1;resizeParentMax=0;resizeLast=0;collapsible=1;marginBottom=0;whiteSpace=wrap;html=1;" parent="1" vertex="1">
          <mxGeometry x="660" y="599" width="150" height="106" as="geometry" />
        </mxCell>
        <mxCell id="9gpGC4CJjmBjQRVp-zge-11" value="+ password: string" style="text;strokeColor=none;fillColor=none;align=left;verticalAlign=top;spacingLeft=4;spacingRight=4;overflow=hidden;rotatable=0;points=[[0,0.5],[1,0.5]];portConstraint=eastwest;whiteSpace=wrap;html=1;" parent="9gpGC4CJjmBjQRVp-zge-9" vertex="1">
          <mxGeometry y="26" width="150" height="26" as="geometry" />
        </mxCell>
        <mxCell id="9gpGC4CJjmBjQRVp-zge-23" value="+ role: string" style="text;strokeColor=none;fillColor=none;align=left;verticalAlign=top;spacingLeft=4;spacingRight=4;overflow=hidden;rotatable=0;points=[[0,0.5],[1,0.5]];portConstraint=eastwest;whiteSpace=wrap;html=1;" parent="9gpGC4CJjmBjQRVp-zge-9" vertex="1">
          <mxGeometry y="52" width="150" height="26" as="geometry" />
        </mxCell>
        <mxCell id="9gpGC4CJjmBjQRVp-zge-12" value="+ workingHours: DateTime" style="text;strokeColor=none;fillColor=none;align=left;verticalAlign=top;spacingLeft=4;spacingRight=4;overflow=hidden;rotatable=0;points=[[0,0.5],[1,0.5]];portConstraint=eastwest;whiteSpace=wrap;html=1;" parent="9gpGC4CJjmBjQRVp-zge-9" vertex="1">
          <mxGeometry y="78" width="150" height="28" as="geometry" />
        </mxCell>
        <mxCell id="gMA8jWBDo5knQY557vL3-11" style="edgeStyle=orthogonalEdgeStyle;rounded=0;orthogonalLoop=1;jettySize=auto;html=1;entryX=0.5;entryY=0;entryDx=0;entryDy=0;" parent="1" source="9gpGC4CJjmBjQRVp-zge-17" target="9gpGC4CJjmBjQRVp-zge-24" edge="1">
          <mxGeometry relative="1" as="geometry" />
        </mxCell>
        <mxCell id="gMA8jWBDo5knQY557vL3-29" style="edgeStyle=orthogonalEdgeStyle;rounded=0;orthogonalLoop=1;jettySize=auto;html=1;entryX=1;entryY=0.5;entryDx=0;entryDy=0;" parent="1" source="9gpGC4CJjmBjQRVp-zge-17" target="9gpGC4CJjmBjQRVp-zge-62" edge="1">
          <mxGeometry relative="1" as="geometry">
            <Array as="points">
              <mxPoint x="1041" y="168" />
            </Array>
          </mxGeometry>
        </mxCell>
        <mxCell id="gMA8jWBDo5knQY557vL3-30" value="Read" style="edgeLabel;html=1;align=center;verticalAlign=middle;resizable=0;points=[];" parent="gMA8jWBDo5knQY557vL3-29" vertex="1" connectable="0">
          <mxGeometry x="-0.2946" y="-3" relative="1" as="geometry">
            <mxPoint as="offset" />
          </mxGeometry>
        </mxCell>
        <mxCell id="YacbXNfmR49tajV6Oktm-7" style="edgeStyle=orthogonalEdgeStyle;rounded=0;orthogonalLoop=1;jettySize=auto;html=1;" edge="1" parent="1" source="9gpGC4CJjmBjQRVp-zge-17" target="9gpGC4CJjmBjQRVp-zge-56">
          <mxGeometry relative="1" as="geometry" />
        </mxCell>
        <mxCell id="YacbXNfmR49tajV6Oktm-10" value="create" style="edgeLabel;html=1;align=center;verticalAlign=middle;resizable=0;points=[];" vertex="1" connectable="0" parent="YacbXNfmR49tajV6Oktm-7">
          <mxGeometry x="-0.1792" relative="1" as="geometry">
            <mxPoint as="offset" />
          </mxGeometry>
        </mxCell>
        <mxCell id="9gpGC4CJjmBjQRVp-zge-17" value="&lt;b&gt;Customer&lt;/b&gt;" style="swimlane;fontStyle=0;childLayout=stackLayout;horizontal=1;startSize=26;fillColor=none;horizontalStack=0;resizeParent=1;resizeParentMax=0;resizeLast=0;collapsible=1;marginBottom=0;whiteSpace=wrap;html=1;" parent="1" vertex="1">
          <mxGeometry x="969" y="350" width="140" height="52" as="geometry" />
        </mxCell>
        <mxCell id="9gpGC4CJjmBjQRVp-zge-18" value="+ andress: string" style="text;strokeColor=none;fillColor=none;align=left;verticalAlign=top;spacingLeft=4;spacingRight=4;overflow=hidden;rotatable=0;points=[[0,0.5],[1,0.5]];portConstraint=eastwest;whiteSpace=wrap;html=1;" parent="9gpGC4CJjmBjQRVp-zge-17" vertex="1">
          <mxGeometry y="26" width="140" height="26" as="geometry" />
        </mxCell>
        <mxCell id="gMA8jWBDo5knQY557vL3-33" style="edgeStyle=orthogonalEdgeStyle;rounded=0;orthogonalLoop=1;jettySize=auto;html=1;" parent="1" source="9gpGC4CJjmBjQRVp-zge-24" target="9gpGC4CJjmBjQRVp-zge-31" edge="1">
          <mxGeometry relative="1" as="geometry" />
        </mxCell>
        <mxCell id="9gpGC4CJjmBjQRVp-zge-24" value="&lt;b&gt;Reservation (DB)&lt;/b&gt;" style="swimlane;fontStyle=0;childLayout=stackLayout;horizontal=1;startSize=26;fillColor=none;horizontalStack=0;resizeParent=1;resizeParentMax=0;resizeLast=0;collapsible=1;marginBottom=0;whiteSpace=wrap;html=1;" parent="1" vertex="1">
          <mxGeometry x="1198" y="507" width="173" height="126" as="geometry" />
        </mxCell>
        <mxCell id="9gpGC4CJjmBjQRVp-zge-27" value="+ peopleNum: int" style="text;strokeColor=none;fillColor=none;align=left;verticalAlign=top;spacingLeft=4;spacingRight=4;overflow=hidden;rotatable=0;points=[[0,0.5],[1,0.5]];portConstraint=eastwest;whiteSpace=wrap;html=1;" parent="9gpGC4CJjmBjQRVp-zge-24" vertex="1">
          <mxGeometry y="26" width="173" height="25" as="geometry" />
        </mxCell>
        <mxCell id="9gpGC4CJjmBjQRVp-zge-29" value="+ startTime: Date Time" style="text;strokeColor=none;fillColor=none;align=left;verticalAlign=top;spacingLeft=4;spacingRight=4;overflow=hidden;rotatable=0;points=[[0,0.5],[1,0.5]];portConstraint=eastwest;whiteSpace=wrap;html=1;" parent="9gpGC4CJjmBjQRVp-zge-24" vertex="1">
          <mxGeometry y="51" width="173" height="25" as="geometry" />
        </mxCell>
        <mxCell id="9gpGC4CJjmBjQRVp-zge-28" value="+ endTime: Date Time" style="text;strokeColor=none;fillColor=none;align=left;verticalAlign=top;spacingLeft=4;spacingRight=4;overflow=hidden;rotatable=0;points=[[0,0.5],[1,0.5]];portConstraint=eastwest;whiteSpace=wrap;html=1;" parent="9gpGC4CJjmBjQRVp-zge-24" vertex="1">
          <mxGeometry y="76" width="173" height="25" as="geometry" />
        </mxCell>
        <mxCell id="9gpGC4CJjmBjQRVp-zge-30" value="+ customer: Customer" style="text;strokeColor=none;fillColor=none;align=left;verticalAlign=top;spacingLeft=4;spacingRight=4;overflow=hidden;rotatable=0;points=[[0,0.5],[1,0.5]];portConstraint=eastwest;whiteSpace=wrap;html=1;" parent="9gpGC4CJjmBjQRVp-zge-24" vertex="1">
          <mxGeometry y="101" width="173" height="25" as="geometry" />
        </mxCell>
        <mxCell id="YacbXNfmR49tajV6Oktm-5" style="rounded=0;orthogonalLoop=1;jettySize=auto;html=1;" edge="1" parent="1" source="9gpGC4CJjmBjQRVp-zge-31" target="9gpGC4CJjmBjQRVp-zge-56">
          <mxGeometry relative="1" as="geometry" />
        </mxCell>
        <mxCell id="YacbXNfmR49tajV6Oktm-9" value="create" style="edgeLabel;html=1;align=center;verticalAlign=middle;resizable=0;points=[];" vertex="1" connectable="0" parent="YacbXNfmR49tajV6Oktm-5">
          <mxGeometry x="-0.0504" relative="1" as="geometry">
            <mxPoint as="offset" />
          </mxGeometry>
        </mxCell>
        <mxCell id="9gpGC4CJjmBjQRVp-zge-31" value="&lt;b&gt;Table (DB)&lt;/b&gt;" style="swimlane;fontStyle=0;childLayout=stackLayout;horizontal=1;startSize=26;fillColor=none;horizontalStack=0;resizeParent=1;resizeParentMax=0;resizeLast=0;collapsible=1;marginBottom=0;whiteSpace=wrap;html=1;" parent="1" vertex="1">
          <mxGeometry x="1214.5" y="785" width="140" height="78" as="geometry" />
        </mxCell>
        <mxCell id="YacbXNfmR49tajV6Oktm-13" value="+ TableType: Enum" style="text;strokeColor=none;fillColor=none;align=left;verticalAlign=top;spacingLeft=4;spacingRight=4;overflow=hidden;rotatable=0;points=[[0,0.5],[1,0.5]];portConstraint=eastwest;whiteSpace=wrap;html=1;" vertex="1" parent="9gpGC4CJjmBjQRVp-zge-31">
          <mxGeometry y="26" width="140" height="26" as="geometry" />
        </mxCell>
        <mxCell id="YacbXNfmR49tajV6Oktm-14" value="+ int: availableTable" style="text;strokeColor=none;fillColor=none;align=left;verticalAlign=top;spacingLeft=4;spacingRight=4;overflow=hidden;rotatable=0;points=[[0,0.5],[1,0.5]];portConstraint=eastwest;whiteSpace=wrap;html=1;" vertex="1" parent="9gpGC4CJjmBjQRVp-zge-31">
          <mxGeometry y="52" width="140" height="26" as="geometry" />
        </mxCell>
        <mxCell id="9gpGC4CJjmBjQRVp-zge-56" value="&lt;b&gt;Check (DB)&lt;/b&gt;" style="swimlane;fontStyle=0;childLayout=stackLayout;horizontal=1;startSize=26;fillColor=none;horizontalStack=0;resizeParent=1;resizeParentMax=0;resizeLast=0;collapsible=1;marginBottom=0;whiteSpace=wrap;html=1;" parent="1" vertex="1">
          <mxGeometry x="969" y="547" width="140" height="234" as="geometry" />
        </mxCell>
        <mxCell id="YacbXNfmR49tajV6Oktm-2" value="+ List of Dish List&amp;lt;Dish&amp;gt;" style="text;strokeColor=none;fillColor=none;align=left;verticalAlign=top;spacingLeft=4;spacingRight=4;overflow=hidden;rotatable=0;points=[[0,0.5],[1,0.5]];portConstraint=eastwest;whiteSpace=wrap;html=1;" vertex="1" parent="9gpGC4CJjmBjQRVp-zge-56">
          <mxGeometry y="26" width="140" height="26" as="geometry" />
        </mxCell>
        <mxCell id="YacbXNfmR49tajV6Oktm-3" value="+ forTable: bool" style="text;strokeColor=none;fillColor=none;align=left;verticalAlign=top;spacingLeft=4;spacingRight=4;overflow=hidden;rotatable=0;points=[[0,0.5],[1,0.5]];portConstraint=eastwest;whiteSpace=wrap;html=1;" vertex="1" parent="9gpGC4CJjmBjQRVp-zge-56">
          <mxGeometry y="52" width="140" height="26" as="geometry" />
        </mxCell>
        <mxCell id="9gpGC4CJjmBjQRVp-zge-58" value="+ amount: double" style="text;strokeColor=none;fillColor=none;align=left;verticalAlign=top;spacingLeft=4;spacingRight=4;overflow=hidden;rotatable=0;points=[[0,0.5],[1,0.5]];portConstraint=eastwest;whiteSpace=wrap;html=1;" parent="9gpGC4CJjmBjQRVp-zge-56" vertex="1">
          <mxGeometry y="78" width="140" height="26" as="geometry" />
        </mxCell>
        <mxCell id="9gpGC4CJjmBjQRVp-zge-59" value="+ tip: double" style="text;strokeColor=none;fillColor=none;align=left;verticalAlign=top;spacingLeft=4;spacingRight=4;overflow=hidden;rotatable=0;points=[[0,0.5],[1,0.5]];portConstraint=eastwest;whiteSpace=wrap;html=1;" parent="9gpGC4CJjmBjQRVp-zge-56" vertex="1">
          <mxGeometry y="104" width="140" height="26" as="geometry" />
        </mxCell>
        <mxCell id="9gpGC4CJjmBjQRVp-zge-91" value="+ tax: double" style="text;strokeColor=none;fillColor=none;align=left;verticalAlign=top;spacingLeft=4;spacingRight=4;overflow=hidden;rotatable=0;points=[[0,0.5],[1,0.5]];portConstraint=eastwest;whiteSpace=wrap;html=1;" parent="9gpGC4CJjmBjQRVp-zge-56" vertex="1">
          <mxGeometry y="130" width="140" height="26" as="geometry" />
        </mxCell>
        <mxCell id="9gpGC4CJjmBjQRVp-zge-90" value="+ isPaid: bool" style="text;strokeColor=none;fillColor=none;align=left;verticalAlign=top;spacingLeft=4;spacingRight=4;overflow=hidden;rotatable=0;points=[[0,0.5],[1,0.5]];portConstraint=eastwest;whiteSpace=wrap;html=1;" parent="9gpGC4CJjmBjQRVp-zge-56" vertex="1">
          <mxGeometry y="156" width="140" height="26" as="geometry" />
        </mxCell>
        <mxCell id="dwK1PaEnIPrI9FGavNex-1" value="Methods (Report and stats)" style="text;strokeColor=none;fillColor=none;align=left;verticalAlign=top;spacingLeft=4;spacingRight=4;overflow=hidden;rotatable=0;points=[[0,0.5],[1,0.5]];portConstraint=eastwest;whiteSpace=wrap;html=1;" parent="9gpGC4CJjmBjQRVp-zge-56" vertex="1">
          <mxGeometry y="182" width="140" height="26" as="geometry" />
        </mxCell>
        <mxCell id="dwK1PaEnIPrI9FGavNex-2" style="text;strokeColor=none;fillColor=none;align=left;verticalAlign=top;spacingLeft=4;spacingRight=4;overflow=hidden;rotatable=0;points=[[0,0.5],[1,0.5]];portConstraint=eastwest;whiteSpace=wrap;html=1;" parent="9gpGC4CJjmBjQRVp-zge-56" vertex="1">
          <mxGeometry y="208" width="140" height="26" as="geometry" />
        </mxCell>
        <mxCell id="9gpGC4CJjmBjQRVp-zge-62" value="&lt;b&gt;Menu&lt;/b&gt;" style="swimlane;fontStyle=0;childLayout=stackLayout;horizontal=1;startSize=26;fillColor=none;horizontalStack=0;resizeParent=1;resizeParentMax=0;resizeLast=0;collapsible=1;marginBottom=0;whiteSpace=wrap;html=1;" parent="1" vertex="1">
          <mxGeometry x="628" y="143" width="355" height="52" as="geometry" />
        </mxCell>
        <mxCell id="9gpGC4CJjmBjQRVp-zge-63" value="+ List of Category: Dictonary&amp;lt;Enum, List&amp;lt;Dish&amp;gt; listCategory&amp;gt;" style="text;strokeColor=none;fillColor=none;align=left;verticalAlign=top;spacingLeft=4;spacingRight=4;overflow=hidden;rotatable=0;points=[[0,0.5],[1,0.5]];portConstraint=eastwest;whiteSpace=wrap;html=1;" parent="9gpGC4CJjmBjQRVp-zge-62" vertex="1">
          <mxGeometry y="26" width="355" height="26" as="geometry" />
        </mxCell>
        <mxCell id="gMA8jWBDo5knQY557vL3-23" style="edgeStyle=orthogonalEdgeStyle;rounded=0;orthogonalLoop=1;jettySize=auto;html=1;entryX=0;entryY=0.5;entryDx=0;entryDy=0;" parent="1" source="9gpGC4CJjmBjQRVp-zge-70" target="9gpGC4CJjmBjQRVp-zge-62" edge="1">
          <mxGeometry relative="1" as="geometry" />
        </mxCell>
        <mxCell id="9gpGC4CJjmBjQRVp-zge-70" value="&lt;b&gt;Dish (DB)&lt;/b&gt;" style="swimlane;fontStyle=0;childLayout=stackLayout;horizontal=1;startSize=26;fillColor=none;horizontalStack=0;resizeParent=1;resizeParentMax=0;resizeLast=0;collapsible=1;marginBottom=0;whiteSpace=wrap;html=1;" parent="1" vertex="1">
          <mxGeometry x="352" y="249" width="208" height="187" as="geometry" />
        </mxCell>
        <mxCell id="9gpGC4CJjmBjQRVp-zge-72" value="+ name: string" style="text;strokeColor=none;fillColor=none;align=left;verticalAlign=top;spacingLeft=4;spacingRight=4;overflow=hidden;rotatable=0;points=[[0,0.5],[1,0.5]];portConstraint=eastwest;whiteSpace=wrap;html=1;" parent="9gpGC4CJjmBjQRVp-zge-70" vertex="1">
          <mxGeometry y="26" width="208" height="26" as="geometry" />
        </mxCell>
        <mxCell id="9gpGC4CJjmBjQRVp-zge-73" value="+ description: string" style="text;strokeColor=none;fillColor=none;align=left;verticalAlign=top;spacingLeft=4;spacingRight=4;overflow=hidden;rotatable=0;points=[[0,0.5],[1,0.5]];portConstraint=eastwest;whiteSpace=wrap;html=1;" parent="9gpGC4CJjmBjQRVp-zge-70" vertex="1">
          <mxGeometry y="52" width="208" height="26" as="geometry" />
        </mxCell>
        <mxCell id="9gpGC4CJjmBjQRVp-zge-79" value="+ price: double" style="text;strokeColor=none;fillColor=none;align=left;verticalAlign=top;spacingLeft=4;spacingRight=4;overflow=hidden;rotatable=0;points=[[0,0.5],[1,0.5]];portConstraint=eastwest;whiteSpace=wrap;html=1;" parent="9gpGC4CJjmBjQRVp-zge-70" vertex="1">
          <mxGeometry y="78" width="208" height="26" as="geometry" />
        </mxCell>
        <mxCell id="9gpGC4CJjmBjQRVp-zge-78" value="+ available: bool (soft delite)" style="text;strokeColor=none;fillColor=none;align=left;verticalAlign=top;spacingLeft=4;spacingRight=4;overflow=hidden;rotatable=0;points=[[0,0.5],[1,0.5]];portConstraint=eastwest;whiteSpace=wrap;html=1;" parent="9gpGC4CJjmBjQRVp-zge-70" vertex="1">
          <mxGeometry y="104" width="208" height="26" as="geometry" />
        </mxCell>
        <mxCell id="9gpGC4CJjmBjQRVp-zge-77" value="+ category: ENUM (remove ?)" style="text;strokeColor=none;fillColor=none;align=left;verticalAlign=top;spacingLeft=4;spacingRight=4;overflow=hidden;rotatable=0;points=[[0,0.5],[1,0.5]];portConstraint=eastwest;whiteSpace=wrap;html=1;" parent="9gpGC4CJjmBjQRVp-zge-70" vertex="1">
          <mxGeometry y="130" width="208" height="26" as="geometry" />
        </mxCell>
        <mxCell id="9gpGC4CJjmBjQRVp-zge-80" value="+ ingredients: List&amp;lt;ENUM.Ingredient&amp;gt;" style="text;strokeColor=none;fillColor=none;align=left;verticalAlign=top;spacingLeft=4;spacingRight=4;overflow=hidden;rotatable=0;points=[[0,0.5],[1,0.5]];portConstraint=eastwest;whiteSpace=wrap;html=1;" parent="9gpGC4CJjmBjQRVp-zge-70" vertex="1">
          <mxGeometry y="156" width="208" height="31" as="geometry" />
        </mxCell>
        <mxCell id="gMA8jWBDo5knQY557vL3-39" style="edgeStyle=orthogonalEdgeStyle;rounded=0;orthogonalLoop=1;jettySize=auto;html=1;" parent="1" source="9gpGC4CJjmBjQRVp-zge-81" target="9gpGC4CJjmBjQRVp-zge-80" edge="1">
          <mxGeometry relative="1" as="geometry" />
        </mxCell>
        <mxCell id="9gpGC4CJjmBjQRVp-zge-81" value="&lt;b&gt;Ingredient (DB)&lt;br&gt;&lt;/b&gt;" style="swimlane;fontStyle=0;childLayout=stackLayout;horizontal=1;startSize=26;fillColor=none;horizontalStack=0;resizeParent=1;resizeParentMax=0;resizeLast=0;collapsible=1;marginBottom=0;whiteSpace=wrap;html=1;" parent="1" vertex="1">
          <mxGeometry x="208" y="587" width="243" height="130" as="geometry" />
        </mxCell>
        <mxCell id="9gpGC4CJjmBjQRVp-zge-82" value="+ name: Enum" style="text;strokeColor=none;fillColor=none;align=left;verticalAlign=top;spacingLeft=4;spacingRight=4;overflow=hidden;rotatable=0;points=[[0,0.5],[1,0.5]];portConstraint=eastwest;whiteSpace=wrap;html=1;" parent="9gpGC4CJjmBjQRVp-zge-81" vertex="1">
          <mxGeometry y="26" width="243" height="26" as="geometry" />
        </mxCell>
        <mxCell id="9gpGC4CJjmBjQRVp-zge-83" value="+ warehouse: Dictionary&amp;lt;Enum.Ingredient, int&amp;gt;" style="text;strokeColor=none;fillColor=none;align=left;verticalAlign=top;spacingLeft=4;spacingRight=4;overflow=hidden;rotatable=0;points=[[0,0.5],[1,0.5]];portConstraint=eastwest;whiteSpace=wrap;html=1;" parent="9gpGC4CJjmBjQRVp-zge-81" vertex="1">
          <mxGeometry y="52" width="243" height="26" as="geometry" />
        </mxCell>
        <mxCell id="dwK1PaEnIPrI9FGavNex-3" value="Methods (Gestione scorte)" style="text;strokeColor=none;fillColor=none;align=left;verticalAlign=top;spacingLeft=4;spacingRight=4;overflow=hidden;rotatable=0;points=[[0,0.5],[1,0.5]];portConstraint=eastwest;whiteSpace=wrap;html=1;" parent="9gpGC4CJjmBjQRVp-zge-81" vertex="1">
          <mxGeometry y="78" width="243" height="26" as="geometry" />
        </mxCell>
        <mxCell id="YacbXNfmR49tajV6Oktm-12" style="text;strokeColor=none;fillColor=none;align=left;verticalAlign=top;spacingLeft=4;spacingRight=4;overflow=hidden;rotatable=0;points=[[0,0.5],[1,0.5]];portConstraint=eastwest;whiteSpace=wrap;html=1;" vertex="1" parent="9gpGC4CJjmBjQRVp-zge-81">
          <mxGeometry y="104" width="243" height="26" as="geometry" />
        </mxCell>
        <mxCell id="ac5Oy0qzjt6PamUdByvo-19" value="EmployeeManager" style="swimlane;fontStyle=1;align=center;verticalAlign=top;childLayout=stackLayout;horizontal=1;startSize=26;horizontalStack=0;resizeParent=1;resizeParentMax=0;resizeLast=0;collapsible=1;marginBottom=0;whiteSpace=wrap;html=1;" parent="1" vertex="1">
          <mxGeometry x="505" y="808" width="160" height="52" as="geometry" />
        </mxCell>
        <mxCell id="ac5Oy0qzjt6PamUdByvo-22" value="+ method(type): type" style="text;strokeColor=none;fillColor=none;align=left;verticalAlign=top;spacingLeft=4;spacingRight=4;overflow=hidden;rotatable=0;points=[[0,0.5],[1,0.5]];portConstraint=eastwest;whiteSpace=wrap;html=1;" parent="ac5Oy0qzjt6PamUdByvo-19" vertex="1">
          <mxGeometry y="26" width="160" height="26" as="geometry" />
        </mxCell>
        <mxCell id="gMA8jWBDo5knQY557vL3-4" value="Extends" style="endArrow=block;endSize=16;endFill=0;html=1;rounded=0;" parent="1" source="9gpGC4CJjmBjQRVp-zge-17" target="9gpGC4CJjmBjQRVp-zge-5" edge="1">
          <mxGeometry width="160" relative="1" as="geometry">
            <mxPoint x="1027" y="477" as="sourcePoint" />
            <mxPoint x="921" y="373" as="targetPoint" />
          </mxGeometry>
        </mxCell>
        <mxCell id="gMA8jWBDo5knQY557vL3-6" value="Extends" style="endArrow=block;endSize=16;endFill=0;html=1;rounded=0;exitX=0.5;exitY=0;exitDx=0;exitDy=0;" parent="1" source="9gpGC4CJjmBjQRVp-zge-9" target="9gpGC4CJjmBjQRVp-zge-5" edge="1">
          <mxGeometry width="160" relative="1" as="geometry">
            <mxPoint x="513" y="350" as="sourcePoint" />
            <mxPoint x="673" y="350" as="targetPoint" />
          </mxGeometry>
        </mxCell>
        <mxCell id="YacbXNfmR49tajV6Oktm-8" style="edgeStyle=orthogonalEdgeStyle;rounded=0;orthogonalLoop=1;jettySize=auto;html=1;" edge="1" parent="1" source="9gpGC4CJjmBjQRVp-zge-23" target="9gpGC4CJjmBjQRVp-zge-56">
          <mxGeometry relative="1" as="geometry" />
        </mxCell>
      </root>
    </mxGraphModel>
  </diagram>
</mxfile>
